<mxfile host="app.diagrams.net" modified="2023-02-09T16:45:53.322Z" agent="5.0 (Windows NT 10.0; Win64; x64) AppleWebKit/537.36 (KHTML, like Gecko) Chrome/109.0.0.0 Safari/537.36" etag="vdXeB7Mdsr3d9JR57Uxs" version="20.8.18" type="github">
  <diagram id="-SRTi5FGNhJISN_nRNZ4" name="Page-1">
    <mxGraphModel dx="1290" dy="549" grid="1" gridSize="10" guides="1" tooltips="1" connect="1" arrows="1" fold="1" page="1" pageScale="1" pageWidth="827" pageHeight="1169" math="0" shadow="0">
      <root>
        <mxCell id="0" />
        <mxCell id="1" parent="0" />
        <mxCell id="EXytRapRBaKdDBkQyjD2-3" value="" style="edgeStyle=orthogonalEdgeStyle;rounded=0;orthogonalLoop=1;jettySize=auto;html=1;" parent="1" source="EXytRapRBaKdDBkQyjD2-1" target="EXytRapRBaKdDBkQyjD2-2" edge="1">
          <mxGeometry relative="1" as="geometry" />
        </mxCell>
        <mxCell id="EXytRapRBaKdDBkQyjD2-1" value="Tạo Route" style="rounded=0;whiteSpace=wrap;html=1;" parent="1" vertex="1">
          <mxGeometry x="90" y="160" width="110" height="50" as="geometry" />
        </mxCell>
        <mxCell id="EXytRapRBaKdDBkQyjD2-5" value="" style="edgeStyle=orthogonalEdgeStyle;rounded=0;orthogonalLoop=1;jettySize=auto;html=1;" parent="1" source="EXytRapRBaKdDBkQyjD2-2" target="EXytRapRBaKdDBkQyjD2-4" edge="1">
          <mxGeometry relative="1" as="geometry">
            <Array as="points">
              <mxPoint x="295" y="230" />
              <mxPoint x="188" y="230" />
            </Array>
          </mxGeometry>
        </mxCell>
        <mxCell id="EXytRapRBaKdDBkQyjD2-2" value="Tạo controller" style="whiteSpace=wrap;html=1;rounded=0;" parent="1" vertex="1">
          <mxGeometry x="250" y="160" width="90" height="50" as="geometry" />
        </mxCell>
        <mxCell id="EXytRapRBaKdDBkQyjD2-4" value="Get" style="ellipse;whiteSpace=wrap;html=1;rounded=0;" parent="1" vertex="1">
          <mxGeometry x="160" y="260" width="55" height="25" as="geometry" />
        </mxCell>
        <mxCell id="EXytRapRBaKdDBkQyjD2-6" value="Create" style="ellipse;whiteSpace=wrap;html=1;rounded=0;" parent="1" vertex="1">
          <mxGeometry x="230" y="260" width="55" height="25" as="geometry" />
        </mxCell>
        <mxCell id="EXytRapRBaKdDBkQyjD2-7" value="Update" style="ellipse;whiteSpace=wrap;html=1;rounded=0;" parent="1" vertex="1">
          <mxGeometry x="300" y="260" width="55" height="25" as="geometry" />
        </mxCell>
        <mxCell id="EXytRapRBaKdDBkQyjD2-11" value="" style="endArrow=none;dashed=1;html=1;rounded=0;" parent="1" edge="1">
          <mxGeometry width="50" height="50" relative="1" as="geometry">
            <mxPoint x="210" y="250" as="sourcePoint" />
            <mxPoint x="490" y="250" as="targetPoint" />
          </mxGeometry>
        </mxCell>
        <mxCell id="EXytRapRBaKdDBkQyjD2-12" value="Tạo MiddleWare" style="edgeLabel;html=1;align=center;verticalAlign=middle;resizable=0;points=[];" parent="EXytRapRBaKdDBkQyjD2-11" vertex="1" connectable="0">
          <mxGeometry x="0.7535" relative="1" as="geometry">
            <mxPoint x="75" as="offset" />
          </mxGeometry>
        </mxCell>
        <mxCell id="EXytRapRBaKdDBkQyjD2-15" value="" style="edgeStyle=orthogonalEdgeStyle;rounded=0;orthogonalLoop=1;jettySize=auto;html=1;" parent="1" source="EXytRapRBaKdDBkQyjD2-13" target="EXytRapRBaKdDBkQyjD2-14" edge="1">
          <mxGeometry relative="1" as="geometry" />
        </mxCell>
        <mxCell id="EXytRapRBaKdDBkQyjD2-13" value="Lấy Header" style="rounded=0;whiteSpace=wrap;html=1;" parent="1" vertex="1">
          <mxGeometry x="5" y="564" width="120" height="60" as="geometry" />
        </mxCell>
        <mxCell id="EXytRapRBaKdDBkQyjD2-17" value="" style="edgeStyle=orthogonalEdgeStyle;rounded=0;orthogonalLoop=1;jettySize=auto;html=1;" parent="1" source="EXytRapRBaKdDBkQyjD2-14" target="EXytRapRBaKdDBkQyjD2-16" edge="1">
          <mxGeometry relative="1" as="geometry" />
        </mxCell>
        <mxCell id="EXytRapRBaKdDBkQyjD2-14" value="Lấy token từ Header" style="whiteSpace=wrap;html=1;rounded=0;" parent="1" vertex="1">
          <mxGeometry x="195" y="564" width="120" height="60" as="geometry" />
        </mxCell>
        <mxCell id="EXytRapRBaKdDBkQyjD2-21" value="" style="edgeStyle=orthogonalEdgeStyle;rounded=0;orthogonalLoop=1;jettySize=auto;html=1;" parent="1" source="EXytRapRBaKdDBkQyjD2-16" target="EXytRapRBaKdDBkQyjD2-20" edge="1">
          <mxGeometry relative="1" as="geometry" />
        </mxCell>
        <mxCell id="EXytRapRBaKdDBkQyjD2-16" value="Verify Token" style="whiteSpace=wrap;html=1;rounded=0;" parent="1" vertex="1">
          <mxGeometry x="358" y="564" width="120" height="60" as="geometry" />
        </mxCell>
        <mxCell id="EXytRapRBaKdDBkQyjD2-18" value="Dùng Split()" style="edgeLabel;html=1;align=center;verticalAlign=middle;resizable=0;points=[];" parent="1" vertex="1" connectable="0">
          <mxGeometry x="145" y="584" as="geometry">
            <mxPoint x="14" y="-2" as="offset" />
          </mxGeometry>
        </mxCell>
        <mxCell id="EXytRapRBaKdDBkQyjD2-28" value="" style="edgeStyle=orthogonalEdgeStyle;rounded=0;orthogonalLoop=1;jettySize=auto;html=1;" parent="1" source="EXytRapRBaKdDBkQyjD2-20" target="EXytRapRBaKdDBkQyjD2-27" edge="1">
          <mxGeometry relative="1" as="geometry" />
        </mxCell>
        <mxCell id="EXytRapRBaKdDBkQyjD2-20" value="Gửi User ID vào Request" style="whiteSpace=wrap;html=1;rounded=0;" parent="1" vertex="1">
          <mxGeometry x="536" y="564" width="120" height="60" as="geometry" />
        </mxCell>
        <mxCell id="EXytRapRBaKdDBkQyjD2-22" value="Next()" style="edgeLabel;html=1;align=center;verticalAlign=middle;resizable=0;points=[];" parent="1" vertex="1" connectable="0">
          <mxGeometry x="676" y="584" as="geometry">
            <mxPoint x="14" y="-2" as="offset" />
          </mxGeometry>
        </mxCell>
        <mxCell id="EXytRapRBaKdDBkQyjD2-27" value="Chuyển sang Fuction tiếp theo" style="whiteSpace=wrap;html=1;rounded=0;" parent="1" vertex="1">
          <mxGeometry x="724" y="564" width="120" height="60" as="geometry" />
        </mxCell>
        <mxCell id="EXytRapRBaKdDBkQyjD2-29" value="lấy ID" style="edgeLabel;html=1;align=center;verticalAlign=middle;resizable=0;points=[];" parent="1" vertex="1" connectable="0">
          <mxGeometry x="490" y="584" as="geometry">
            <mxPoint x="14" y="-2" as="offset" />
          </mxGeometry>
        </mxCell>
        <mxCell id="EXytRapRBaKdDBkQyjD2-31" value="Quy trình tạo MiddleWare" style="edgeLabel;html=1;align=center;verticalAlign=middle;resizable=0;points=[];fontStyle=1" parent="1" vertex="1" connectable="0">
          <mxGeometry x="414" y="664" as="geometry" />
        </mxCell>
        <mxCell id="EXytRapRBaKdDBkQyjD2-32" value="" style="endArrow=classic;html=1;rounded=0;entryX=0.5;entryY=0;entryDx=0;entryDy=0;" parent="1" target="EXytRapRBaKdDBkQyjD2-16" edge="1">
          <mxGeometry width="50" height="50" relative="1" as="geometry">
            <mxPoint x="418" y="534" as="sourcePoint" />
            <mxPoint x="440" y="444" as="targetPoint" />
          </mxGeometry>
        </mxCell>
        <mxCell id="EXytRapRBaKdDBkQyjD2-33" value="Secret Key" style="rounded=0;whiteSpace=wrap;html=1;" parent="1" vertex="1">
          <mxGeometry x="360" y="474" width="120" height="60" as="geometry" />
        </mxCell>
        <mxCell id="EXytRapRBaKdDBkQyjD2-34" value="" style="rounded=0;whiteSpace=wrap;html=1;" parent="1" vertex="1">
          <mxGeometry x="75" y="740" width="145" height="180" as="geometry" />
        </mxCell>
        <mxCell id="EXytRapRBaKdDBkQyjD2-35" value="Post ID" style="rounded=0;whiteSpace=wrap;html=1;" parent="1" vertex="1">
          <mxGeometry x="85" y="760" width="120" height="30" as="geometry" />
        </mxCell>
        <mxCell id="EXytRapRBaKdDBkQyjD2-36" value="Content" style="rounded=0;whiteSpace=wrap;html=1;" parent="1" vertex="1">
          <mxGeometry x="85" y="800" width="120" height="30" as="geometry" />
        </mxCell>
        <mxCell id="EXytRapRBaKdDBkQyjD2-49" style="edgeStyle=orthogonalEdgeStyle;rounded=0;orthogonalLoop=1;jettySize=auto;html=1;entryX=0;entryY=0.5;entryDx=0;entryDy=0;" parent="1" source="EXytRapRBaKdDBkQyjD2-37" target="EXytRapRBaKdDBkQyjD2-41" edge="1">
          <mxGeometry relative="1" as="geometry" />
        </mxCell>
        <mxCell id="EXytRapRBaKdDBkQyjD2-37" value="Author" style="rounded=0;whiteSpace=wrap;html=1;" parent="1" vertex="1">
          <mxGeometry x="85" y="840" width="120" height="30" as="geometry" />
        </mxCell>
        <mxCell id="EXytRapRBaKdDBkQyjD2-38" value="CreateAt" style="rounded=0;whiteSpace=wrap;html=1;" parent="1" vertex="1">
          <mxGeometry x="85" y="880" width="120" height="30" as="geometry" />
        </mxCell>
        <mxCell id="EXytRapRBaKdDBkQyjD2-39" value="Post Schema" style="edgeLabel;html=1;align=center;verticalAlign=middle;resizable=0;points=[];" parent="1" vertex="1" connectable="0">
          <mxGeometry x="145" y="940" as="geometry">
            <mxPoint x="14" y="-2" as="offset" />
          </mxGeometry>
        </mxCell>
        <mxCell id="EXytRapRBaKdDBkQyjD2-40" value="" style="rounded=0;whiteSpace=wrap;html=1;" parent="1" vertex="1">
          <mxGeometry x="340" y="740" width="145" height="180" as="geometry" />
        </mxCell>
        <mxCell id="EXytRapRBaKdDBkQyjD2-41" value="UserID" style="rounded=0;whiteSpace=wrap;html=1;" parent="1" vertex="1">
          <mxGeometry x="350" y="760" width="120" height="30" as="geometry" />
        </mxCell>
        <mxCell id="EXytRapRBaKdDBkQyjD2-42" value="Name" style="rounded=0;whiteSpace=wrap;html=1;" parent="1" vertex="1">
          <mxGeometry x="350" y="800" width="120" height="30" as="geometry" />
        </mxCell>
        <mxCell id="EXytRapRBaKdDBkQyjD2-43" value="Email" style="rounded=0;whiteSpace=wrap;html=1;" parent="1" vertex="1">
          <mxGeometry x="350" y="840" width="120" height="30" as="geometry" />
        </mxCell>
        <mxCell id="EXytRapRBaKdDBkQyjD2-44" value="CreateAt" style="rounded=0;whiteSpace=wrap;html=1;" parent="1" vertex="1">
          <mxGeometry x="350" y="880" width="120" height="30" as="geometry" />
        </mxCell>
        <mxCell id="EXytRapRBaKdDBkQyjD2-45" value="User Schema" style="edgeLabel;html=1;align=center;verticalAlign=middle;resizable=0;points=[];" parent="1" vertex="1" connectable="0">
          <mxGeometry x="410" y="940" as="geometry">
            <mxPoint x="14" y="-2" as="offset" />
          </mxGeometry>
        </mxCell>
        <mxCell id="EXytRapRBaKdDBkQyjD2-51" style="edgeStyle=orthogonalEdgeStyle;rounded=0;orthogonalLoop=1;jettySize=auto;html=1;" parent="1" source="EXytRapRBaKdDBkQyjD2-50" edge="1">
          <mxGeometry relative="1" as="geometry">
            <mxPoint x="260" y="860" as="targetPoint" />
          </mxGeometry>
        </mxCell>
        <mxCell id="EXytRapRBaKdDBkQyjD2-50" value="&lt;div style=&quot;color: rgb(0, 0, 0); background-color: rgb(255, 255, 255); font-family: Consolas, &amp;quot;Courier New&amp;quot;, monospace; font-weight: normal; font-size: 14px; line-height: 19px;&quot;&gt;&lt;div&gt;&lt;span style=&quot;color: #267f99;&quot;&gt;type&lt;/span&gt;&lt;span style=&quot;color: #001080;&quot;&gt;:&lt;/span&gt;&lt;span style=&quot;color: #000000;&quot;&gt; &lt;/span&gt;&lt;span style=&quot;color: #267f99;&quot;&gt;mongoose&lt;/span&gt;&lt;span style=&quot;color: #000000;&quot;&gt;.&lt;/span&gt;&lt;span style=&quot;color: #267f99;&quot;&gt;Schema&lt;/span&gt;&lt;span style=&quot;color: #000000;&quot;&gt;.&lt;/span&gt;&lt;span style=&quot;color: #267f99;&quot;&gt;Types&lt;/span&gt;&lt;span style=&quot;color: #000000;&quot;&gt;.&lt;/span&gt;&lt;span style=&quot;color: #267f99;&quot;&gt;ObjectId&lt;/span&gt;&lt;span style=&quot;color: #000000;&quot;&gt;,&lt;/span&gt;&lt;/div&gt;&lt;div&gt;&lt;span style=&quot;color: #001080;&quot;&gt;ref&lt;/span&gt;&lt;span style=&quot;color: #001080;&quot;&gt;:&lt;/span&gt;&lt;span style=&quot;color: #000000;&quot;&gt; &lt;/span&gt;&lt;span style=&quot;color: #a31515;&quot;&gt;&#39;User&#39;&lt;/span&gt;&lt;/div&gt;&lt;/div&gt;" style="text;whiteSpace=wrap;html=1;align=left;" parent="1" vertex="1">
          <mxGeometry x="130" y="980" width="260" height="60" as="geometry" />
        </mxCell>
        <mxCell id="EXytRapRBaKdDBkQyjD2-52" value="Link" style="text;html=1;align=center;verticalAlign=middle;resizable=0;points=[];autosize=1;strokeColor=none;fillColor=none;" parent="1" vertex="1">
          <mxGeometry x="250" y="790" width="50" height="30" as="geometry" />
        </mxCell>
        <mxCell id="EXytRapRBaKdDBkQyjD2-53" value="Error Handle" style="rounded=0;whiteSpace=wrap;html=1;" parent="1" vertex="1">
          <mxGeometry x="500" y="270" width="80" height="40" as="geometry" />
        </mxCell>
        <mxCell id="EXytRapRBaKdDBkQyjD2-56" value="" style="endArrow=classic;html=1;rounded=0;" parent="1" edge="1">
          <mxGeometry width="50" height="50" relative="1" as="geometry">
            <mxPoint x="440" y="252.5" as="sourcePoint" />
            <mxPoint x="500" y="293" as="targetPoint" />
            <Array as="points">
              <mxPoint x="440" y="292.5" />
            </Array>
          </mxGeometry>
        </mxCell>
        <mxCell id="EXytRapRBaKdDBkQyjD2-57" value="Delete" style="ellipse;whiteSpace=wrap;html=1;rounded=0;" parent="1" vertex="1">
          <mxGeometry x="359" y="260" width="55" height="25" as="geometry" />
        </mxCell>
        <mxCell id="EXytRapRBaKdDBkQyjD2-58" value="Có lỗi" style="text;html=1;align=center;verticalAlign=middle;resizable=0;points=[];autosize=1;strokeColor=none;fillColor=none;" parent="1" vertex="1">
          <mxGeometry x="414" y="220" width="50" height="30" as="geometry" />
        </mxCell>
        <mxCell id="EXytRapRBaKdDBkQyjD2-61" style="edgeStyle=orthogonalEdgeStyle;rounded=0;orthogonalLoop=1;jettySize=auto;html=1;entryX=1;entryY=0.5;entryDx=0;entryDy=0;" parent="1" source="EXytRapRBaKdDBkQyjD2-60" target="EXytRapRBaKdDBkQyjD2-53" edge="1">
          <mxGeometry relative="1" as="geometry" />
        </mxCell>
        <mxCell id="EXytRapRBaKdDBkQyjD2-60" value="Đặt ở vị trí cuối cùng, sau route" style="text;html=1;align=center;verticalAlign=middle;resizable=0;points=[];autosize=1;strokeColor=none;fillColor=none;" parent="1" vertex="1">
          <mxGeometry x="630" y="275" width="190" height="30" as="geometry" />
        </mxCell>
        <mxCell id="RWx-zVJMpGf9WlTPyFR--6" style="edgeStyle=orthogonalEdgeStyle;rounded=0;orthogonalLoop=1;jettySize=auto;html=1;entryX=0;entryY=0.5;entryDx=0;entryDy=0;" parent="1" source="RWx-zVJMpGf9WlTPyFR--1" target="RWx-zVJMpGf9WlTPyFR--5" edge="1">
          <mxGeometry relative="1" as="geometry" />
        </mxCell>
        <mxCell id="RWx-zVJMpGf9WlTPyFR--19" style="edgeStyle=orthogonalEdgeStyle;rounded=0;orthogonalLoop=1;jettySize=auto;html=1;entryX=1;entryY=0.25;entryDx=0;entryDy=0;" parent="1" source="RWx-zVJMpGf9WlTPyFR--1" target="RWx-zVJMpGf9WlTPyFR--13" edge="1">
          <mxGeometry relative="1" as="geometry">
            <Array as="points">
              <mxPoint x="288" y="1415" />
            </Array>
          </mxGeometry>
        </mxCell>
        <mxCell id="RWx-zVJMpGf9WlTPyFR--1" value="Check Current User" style="whiteSpace=wrap;html=1;" parent="1" vertex="1">
          <mxGeometry x="227.5" y="1250" width="120" height="60" as="geometry" />
        </mxCell>
        <mxCell id="RWx-zVJMpGf9WlTPyFR--3" style="edgeStyle=orthogonalEdgeStyle;rounded=0;orthogonalLoop=1;jettySize=auto;html=1;entryX=0;entryY=0.5;entryDx=0;entryDy=0;" parent="1" source="RWx-zVJMpGf9WlTPyFR--2" target="RWx-zVJMpGf9WlTPyFR--1" edge="1">
          <mxGeometry relative="1" as="geometry" />
        </mxCell>
        <mxCell id="RWx-zVJMpGf9WlTPyFR--2" value="Request &lt;br&gt;Header" style="text;html=1;align=center;verticalAlign=middle;resizable=0;points=[];autosize=1;strokeColor=none;fillColor=none;" parent="1" vertex="1">
          <mxGeometry x="35" y="1260" width="70" height="40" as="geometry" />
        </mxCell>
        <mxCell id="RWx-zVJMpGf9WlTPyFR--17" style="edgeStyle=orthogonalEdgeStyle;rounded=0;orthogonalLoop=1;jettySize=auto;html=1;entryX=1;entryY=0.5;entryDx=0;entryDy=0;" parent="1" source="RWx-zVJMpGf9WlTPyFR--5" target="RWx-zVJMpGf9WlTPyFR--13" edge="1">
          <mxGeometry relative="1" as="geometry">
            <Array as="points">
              <mxPoint x="520" y="1430" />
            </Array>
          </mxGeometry>
        </mxCell>
        <mxCell id="RWx-zVJMpGf9WlTPyFR--5" value="Get Current User" style="whiteSpace=wrap;html=1;" parent="1" vertex="1">
          <mxGeometry x="460" y="1250" width="120" height="60" as="geometry" />
        </mxCell>
        <mxCell id="RWx-zVJMpGf9WlTPyFR--7" value="Next()" style="text;html=1;align=center;verticalAlign=middle;resizable=0;points=[];autosize=1;strokeColor=none;fillColor=none;" parent="1" vertex="1">
          <mxGeometry x="372.5" y="1280" width="60" height="30" as="geometry" />
        </mxCell>
        <mxCell id="RWx-zVJMpGf9WlTPyFR--8" value="UserID" style="text;html=1;align=center;verticalAlign=middle;resizable=0;points=[];autosize=1;strokeColor=none;fillColor=none;" parent="1" vertex="1">
          <mxGeometry x="372.5" y="1250" width="60" height="30" as="geometry" />
        </mxCell>
        <mxCell id="RWx-zVJMpGf9WlTPyFR--10" style="edgeStyle=orthogonalEdgeStyle;rounded=0;orthogonalLoop=1;jettySize=auto;html=1;entryX=0.5;entryY=0;entryDx=0;entryDy=0;" parent="1" source="RWx-zVJMpGf9WlTPyFR--9" target="RWx-zVJMpGf9WlTPyFR--1" edge="1">
          <mxGeometry relative="1" as="geometry" />
        </mxCell>
        <mxCell id="RWx-zVJMpGf9WlTPyFR--9" value="MiddleWare" style="text;html=1;align=center;verticalAlign=middle;resizable=0;points=[];autosize=1;strokeColor=none;fillColor=none;" parent="1" vertex="1">
          <mxGeometry x="242.5" y="1190" width="90" height="30" as="geometry" />
        </mxCell>
        <mxCell id="RWx-zVJMpGf9WlTPyFR--12" value="" style="edgeStyle=orthogonalEdgeStyle;rounded=0;orthogonalLoop=1;jettySize=auto;html=1;" parent="1" source="RWx-zVJMpGf9WlTPyFR--11" target="RWx-zVJMpGf9WlTPyFR--5" edge="1">
          <mxGeometry relative="1" as="geometry" />
        </mxCell>
        <mxCell id="RWx-zVJMpGf9WlTPyFR--11" value="Controller" style="text;html=1;align=center;verticalAlign=middle;resizable=0;points=[];autosize=1;strokeColor=none;fillColor=none;" parent="1" vertex="1">
          <mxGeometry x="480" y="1190" width="80" height="30" as="geometry" />
        </mxCell>
        <mxCell id="RWx-zVJMpGf9WlTPyFR--15" style="edgeStyle=orthogonalEdgeStyle;rounded=0;orthogonalLoop=1;jettySize=auto;html=1;" parent="1" source="RWx-zVJMpGf9WlTPyFR--13" target="RWx-zVJMpGf9WlTPyFR--2" edge="1">
          <mxGeometry relative="1" as="geometry" />
        </mxCell>
        <mxCell id="RWx-zVJMpGf9WlTPyFR--13" value="Client" style="whiteSpace=wrap;html=1;" parent="1" vertex="1">
          <mxGeometry x="10" y="1399" width="120" height="60" as="geometry" />
        </mxCell>
        <mxCell id="RWx-zVJMpGf9WlTPyFR--16" value="Token" style="text;html=1;align=center;verticalAlign=middle;resizable=0;points=[];autosize=1;strokeColor=none;fillColor=none;" parent="1" vertex="1">
          <mxGeometry x="125" y="1250" width="60" height="30" as="geometry" />
        </mxCell>
        <mxCell id="RWx-zVJMpGf9WlTPyFR--18" value="User Info" style="text;html=1;align=center;verticalAlign=middle;resizable=0;points=[];autosize=1;strokeColor=none;fillColor=none;" parent="1" vertex="1">
          <mxGeometry x="367.5" y="1430" width="70" height="30" as="geometry" />
        </mxCell>
        <mxCell id="jv9msRsnAz_BybJq5xRs-16" style="edgeStyle=orthogonalEdgeStyle;rounded=0;orthogonalLoop=1;jettySize=auto;html=1;entryX=0;entryY=0.5;entryDx=0;entryDy=0;" edge="1" parent="1" source="jv9msRsnAz_BybJq5xRs-7" target="jv9msRsnAz_BybJq5xRs-8">
          <mxGeometry relative="1" as="geometry" />
        </mxCell>
        <mxCell id="jv9msRsnAz_BybJq5xRs-21" style="edgeStyle=orthogonalEdgeStyle;rounded=0;orthogonalLoop=1;jettySize=auto;html=1;" edge="1" parent="1" source="jv9msRsnAz_BybJq5xRs-7" target="jv9msRsnAz_BybJq5xRs-20">
          <mxGeometry relative="1" as="geometry" />
        </mxCell>
        <mxCell id="jv9msRsnAz_BybJq5xRs-7" value="Bộ đề" style="rounded=0;whiteSpace=wrap;html=1;" vertex="1" parent="1">
          <mxGeometry x="140" y="1640" width="120" height="60" as="geometry" />
        </mxCell>
        <mxCell id="jv9msRsnAz_BybJq5xRs-17" value="" style="edgeStyle=orthogonalEdgeStyle;rounded=0;orthogonalLoop=1;jettySize=auto;html=1;" edge="1" parent="1" source="jv9msRsnAz_BybJq5xRs-8" target="jv9msRsnAz_BybJq5xRs-12">
          <mxGeometry relative="1" as="geometry" />
        </mxCell>
        <mxCell id="jv9msRsnAz_BybJq5xRs-23" style="edgeStyle=orthogonalEdgeStyle;rounded=0;orthogonalLoop=1;jettySize=auto;html=1;" edge="1" parent="1" source="jv9msRsnAz_BybJq5xRs-8" target="jv9msRsnAz_BybJq5xRs-22">
          <mxGeometry relative="1" as="geometry" />
        </mxCell>
        <mxCell id="jv9msRsnAz_BybJq5xRs-8" value="Test" style="whiteSpace=wrap;html=1;" vertex="1" parent="1">
          <mxGeometry x="312.5" y="1640" width="120" height="60" as="geometry" />
        </mxCell>
        <mxCell id="jv9msRsnAz_BybJq5xRs-25" style="edgeStyle=orthogonalEdgeStyle;rounded=0;orthogonalLoop=1;jettySize=auto;html=1;entryX=0.5;entryY=0;entryDx=0;entryDy=0;" edge="1" parent="1" source="jv9msRsnAz_BybJq5xRs-12" target="jv9msRsnAz_BybJq5xRs-24">
          <mxGeometry relative="1" as="geometry" />
        </mxCell>
        <mxCell id="jv9msRsnAz_BybJq5xRs-12" value="Câu hỏi" style="whiteSpace=wrap;html=1;" vertex="1" parent="1">
          <mxGeometry x="470" y="1640" width="120" height="60" as="geometry" />
        </mxCell>
        <mxCell id="jv9msRsnAz_BybJq5xRs-20" value="ID bộ đề&lt;br&gt;Tên bộ đề&lt;br&gt;Số lượng test" style="whiteSpace=wrap;html=1;" vertex="1" parent="1">
          <mxGeometry x="135" y="1800" width="130" height="190" as="geometry" />
        </mxCell>
        <mxCell id="jv9msRsnAz_BybJq5xRs-22" value="ID Test&lt;br&gt;ID Bộ đề&lt;br&gt;Tên test&lt;br&gt;Số lượng câu hỏi" style="whiteSpace=wrap;html=1;" vertex="1" parent="1">
          <mxGeometry x="307.5" y="1800" width="130" height="190" as="geometry" />
        </mxCell>
        <mxCell id="jv9msRsnAz_BybJq5xRs-24" value="ID câu hỏi&lt;br&gt;ID bộ đề&lt;br&gt;Tên câu hỏi&lt;br&gt;Số lượng câu hỏi&lt;br&gt;Đáp án&lt;br&gt;Loại câu hỏi" style="whiteSpace=wrap;html=1;" vertex="1" parent="1">
          <mxGeometry x="465" y="1800" width="130" height="190" as="geometry" />
        </mxCell>
      </root>
    </mxGraphModel>
  </diagram>
</mxfile>
